<?xml version="1.0" standalone="no"?>
<!DOCTYPE svg PUBLIC "-//W3C//DTD SVG 20010904//EN"
 "http://www.w3.org/TR/2001/REC-SVG-20010904/DTD/svg10.dtd">
<svg version="1.0" xmlns="http://www.w3.org/2000/svg"
 width="512.000000pt" height="108.000000pt" viewBox="0 0 512.000000 108.000000"
 preserveAspectRatio="xMidYMid meet">

<g transform="translate(0.000000,108.000000) scale(0.100000,-0.100000)"
fill="#000000" stroke="none">
<path d="M819 1040 c-53 -9 -106 -35 -169 -81 -25 -19 -58 -38 -75 -44 -25 -8
-34 -20 -52 -75 -30 -88 -53 -191 -53 -237 1 -34 10 -67 35 -125 13 -32 -11
-19 -45 24 -26 32 -38 62 -53 127 -18 85 -40 126 -97 180 -47 45 -83 61 -135
61 -41 0 -57 -5 -85 -29 -34 -28 -35 -31 -35 -102 0 -99 8 -122 61 -179 37
-39 57 -51 117 -70 62 -19 79 -30 124 -77 41 -43 50 -59 43 -72 -5 -9 -45 -56
-90 -105 -74 -82 -80 -92 -80 -131 0 -53 28 -75 93 -75 40 0 49 5 88 48 24 26
58 64 74 85 l30 38 55 -72 c69 -91 85 -106 122 -114 45 -10 78 16 78 64 0 43
-21 79 -106 178 -30 35 -54 67 -54 71 0 4 8 17 18 29 l17 23 70 -25 c128 -45
220 -31 324 50 48 36 67 60 100 126 38 74 41 87 41 158 0 68 -4 86 -34 147
-37 76 -99 152 -149 182 -38 24 -115 33 -178 22z m167 -66 c74 -42 89 -105 54
-232 -11 -39 -20 -88 -20 -107 0 -29 -5 -38 -27 -48 -16 -6 -54 -33 -86 -58
-149 -119 -321 -119 -378 -1 -28 56 -22 131 20 252 24 72 34 88 62 105 19 11
53 34 77 52 41 30 106 57 162 66 41 7 93 -4 136 -29z m145 -217 c32 -130 -46
-292 -174 -359 -57 -30 -171 -30 -242 0 -27 11 -47 21 -44 21 81 8 185 49 241
96 21 18 40 24 67 23 58 -2 64 6 58 71 -5 42 -1 73 14 121 11 36 20 85 21 109
l0 44 23 -39 c13 -22 29 -61 36 -87z m-891 53 c64 -32 111 -107 129 -202 5
-32 17 -70 25 -85 8 -16 82 -109 165 -208 133 -158 148 -181 131 -187 -24 -9
-25 -21 -5 -38 12 -10 18 -10 30 0 13 10 15 9 15 -9 0 -31 -40 -27 -72 6 -14
16 -62 82 -108 148 -80 117 -177 242 -204 265 -8 6 -43 18 -78 27 -98 25 -149
76 -168 168 -23 112 41 165 140 115z m790 -227 c-1 -21 -20 -34 -46 -31 l-29
3 30 17 c33 19 45 22 45 11z m-439 -133 c19 -11 19 -12 -6 -44 -31 -40 -32
-56 -3 -30 l22 19 -20 -27 c-10 -14 -20 -22 -22 -17 -2 5 -10 9 -17 9 -8 0
-19 9 -25 20 -9 17 -7 26 12 50 26 33 31 34 59 20z m39 -24 c0 -2 -8 -10 -17
-17 -16 -13 -17 -12 -4 4 13 16 21 21 21 13z m-147 -123 c6 -16 15 -30 18 -33
8 -6 -125 -183 -141 -188 -7 -3 20 35 59 84 39 48 71 92 71 98 -1 6 -13 -5
-28 -24 -111 -142 -146 -175 -175 -164 -36 13 -19 54 60 142 42 48 82 92 88
99 17 20 35 15 48 -14z"/>
<path d="M795 972 c-27 -10 -81 -39 -119 -65 -37 -26 -72 -47 -76 -47 -14 0
-70 -197 -70 -246 0 -181 204 -211 383 -56 27 23 54 42 62 42 20 0 29 20 27
54 -2 16 7 58 19 94 31 93 23 156 -26 198 -54 48 -115 56 -200 26z m123 -3
c31 -6 59 -20 75 -37 l26 -27 -72 0 c-78 -1 -140 -25 -206 -81 -90 -76 -157
-256 -121 -325 17 -31 -14 -24 -44 11 -33 40 -41 87 -26 163 16 80 34 115 65
123 28 7 45 31 45 63 0 32 99 97 170 112 19 4 36 7 37 8 1 0 24 -4 51 -10z
m90 -85 c28 -19 28 -56 2 -131 -11 -32 -20 -74 -20 -95 0 -32 -4 -40 -26 -48
-15 -6 -49 -30 -76 -55 -78 -70 -215 -109 -248 -70 -19 23 -8 152 18 207 70
144 266 251 350 192z m-367 -41 c-5 -18 -15 -29 -29 -31 -12 -2 -22 1 -22 5 0
14 23 40 40 46 8 3 16 6 17 6 1 1 -2 -11 -6 -26z"/>
<path d="M146 804 c-14 -14 -17 -29 -13 -67 8 -85 92 -177 162 -177 44 0 59
21 52 70 -15 113 -148 228 -201 174z m92 -27 c58 -43 92 -103 92 -162 0 -33
-2 -35 -34 -35 -45 0 -95 36 -123 89 -22 42 -31 110 -16 124 13 14 50 6 81
-16z"/>
<path d="M296 138 c-14 -20 -14 -24 -1 -37 13 -14 17 -13 36 6 23 23 20 53 -5
53 -8 0 -22 -10 -30 -22z"/>
<path d="M1449 780 c-79 -42 -92 -184 -23 -253 l25 -26 -28 -3 c-22 -2 -29 -9
-35 -38 -8 -41 3 -100 27 -136 22 -34 72 -54 134 -54 58 0 97 13 129 42 l22
21 0 -46 c0 -53 4 -57 62 -61 63 -5 100 4 105 26 4 13 15 18 40 18 45 0 92 28
100 59 l6 24 20 -28 c55 -74 210 -74 264 1 l21 29 23 -29 c54 -68 187 -77 248
-16 l27 28 11 -29 11 -29 146 0 c133 0 146 2 156 19 6 11 10 84 9 168 0 239
-14 255 -198 246 l-113 -6 -13 -30 c-10 -23 -14 -27 -21 -16 -47 76 -223 71
-265 -8 l-12 -23 -34 35 c-65 67 -174 71 -244 8 -24 -22 -39 -30 -39 -21 0 16
-36 52 -60 60 -9 3 -68 3 -132 -1 l-118 -6 -11 28 c-26 62 -161 89 -240 47z
m178 -30 c34 -21 47 -49 41 -96 -3 -28 -5 -29 -53 -29 -49 0 -50 1 -53 33 -5
45 -32 43 -32 -3 0 -31 6 -38 59 -75 81 -55 91 -71 91 -152 0 -55 -4 -72 -20
-88 -43 -43 -126 -53 -183 -23 -46 23 -56 41 -57 101 l0 52 55 0 55 0 0 -46
c0 -38 3 -45 17 -42 10 2 19 11 21 21 8 40 -9 68 -63 103 -70 44 -88 71 -89
138 0 59 20 101 57 116 40 16 120 11 154 -10z m350 -100 c17 -34 17 -276 0
-310 -17 -34 -59 -47 -94 -30 -15 8 -31 16 -35 18 -5 2 -8 -12 -8 -32 l0 -36
-55 0 -55 0 0 210 0 210 54 0 c30 0 57 -4 61 -9 3 -6 16 -4 30 3 36 19 87 6
102 -24z m270 14 c44 -28 55 -68 51 -186 -3 -106 -4 -108 -36 -140 -30 -31
-37 -33 -98 -33 -61 0 -67 2 -95 33 -29 32 -29 34 -29 150 0 133 16 176 67
188 15 3 33 7 38 9 18 6 79 -7 102 -21z m305 5 c40 -21 48 -49 48 -174 0 -135
-8 -157 -66 -181 -64 -27 -150 -8 -174 37 -8 13 -12 68 -12 141 0 136 10 163
73 185 34 12 100 8 131 -8z m343 -10 c18 -18 20 -33 20 -182 l0 -162 -57 -3
-58 -3 0 156 c0 121 -3 156 -12 153 -10 -4 -14 -46 -16 -156 l-3 -152 -53 0
c-34 0 -56 5 -58 13 -3 6 -5 89 -4 182 l1 170 54 3 c36 2 57 -1 63 -10 6 -9
10 -10 16 -2 18 28 74 24 107 -7z m-1195 -95 l0 -35 -29 28 c-24 24 -26 29
-12 35 33 14 41 8 41 -28z"/>
<path d="M1846 604 c-3 -9 -6 -59 -6 -112 0 -93 10 -135 27 -118 9 9 15 190 7
223 -7 27 -19 30 -28 7z"/>
<path d="M2154 607 c-11 -28 1 -230 14 -235 9 -3 12 26 12 122 0 80 -4 126
-10 126 -6 0 -13 -6 -16 -13z"/>
<path d="M2460 496 c0 -106 2 -126 15 -126 13 0 15 18 13 122 -2 86 -7 123
-15 126 -10 3 -13 -26 -13 -122z"/>
<path d="M3060 771 c-14 -26 -14 -446 0 -472 9 -16 22 -19 85 -19 90 0 95 6
95 114 0 74 1 76 25 76 24 0 25 -2 25 -76 0 -121 -17 -113 249 -113 193 -1
231 1 241 14 11 14 15 14 33 -2 17 -16 35 -18 141 -15 66 2 193 5 281 5 155 2
160 3 171 25 10 21 12 21 25 6 52 -63 194 -56 247 11 l22 28 22 -28 c59 -76
196 -73 261 4 26 31 27 37 27 154 0 100 -3 129 -19 157 -37 70 -143 100 -218
61 -23 -11 -48 -30 -56 -41 -14 -21 -15 -21 -44 9 -67 66 -216 60 -254 -10
-11 -21 -11 -21 -29 9 -25 41 -58 49 -188 44 l-113 -4 -5 -28 -6 -27 -23 23
c-59 59 -182 55 -245 -7 -18 -18 -30 -25 -30 -17 0 8 -12 25 -26 39 -25 23
-30 24 -154 21 l-129 -4 -3 39 -3 38 -197 3 c-187 2 -198 1 -208 -17z m230
-56 l0 -45 -39 0 c-41 0 -47 -7 -46 -55 0 -28 3 -30 38 -30 37 0 37 0 37 -42
0 -43 0 -43 -37 -43 l-38 0 0 -93 0 -92 -56 -3 c-56 -3 -56 -3 -63 29 -3 17
-6 119 -6 225 l0 194 105 0 105 0 0 -45z m150 15 c0 -30 -1 -30 -55 -30 -30 0
-55 3 -55 8 0 4 -3 17 -6 30 -6 21 -4 22 55 22 l61 0 0 -30z m300 -67 c12 -11
16 -48 18 -183 l3 -170 -54 0 -55 0 -6 43 c-4 23 -6 91 -5 150 1 111 -2 124
-20 112 -7 -4 -11 -61 -11 -156 l0 -149 -55 0 -55 0 0 185 0 185 54 0 c30 0
57 -4 61 -9 3 -6 17 -4 32 4 30 16 69 11 93 -12z m242 17 c70 -20 78 -42 78
-216 l0 -154 -55 0 c-32 0 -55 4 -55 11 0 5 -10 3 -22 -5 -31 -22 -63 -20 -92
7 -22 18 -26 32 -27 80 -2 69 11 88 82 113 50 18 65 39 57 81 -6 34 -33 20
-36 -19 -4 -41 -25 -54 -70 -43 -35 9 -41 20 -32 62 17 74 85 107 172 83z
m362 -12 c25 -23 26 -25 27 -178 1 -85 1 -161 0 -167 -1 -9 -19 -13 -56 -13
l-55 0 0 155 c0 131 -2 155 -15 155 -13 0 -15 -24 -15 -155 l0 -155 -60 0 -60
0 0 185 0 185 60 0 c38 0 60 -4 60 -11 0 -8 4 -8 13 -1 12 9 39 18 64 21 7 0
23 -9 37 -21z m276 2 c30 -16 49 -46 56 -88 l7 -42 -56 0 -56 0 -3 37 c-2 20
-9 38 -15 41 -10 3 -13 -26 -13 -122 0 -101 3 -126 14 -126 17 0 26 22 26 61
0 28 1 29 51 29 l52 0 -7 -47 c-12 -92 -103 -139 -188 -99 -54 26 -63 52 -62
187 0 111 2 121 24 144 38 40 119 52 170 25z m310 -9 c36 -25 50 -58 50 -118
l0 -52 -72 -3 -73 -3 2 -45 c1 -25 2 -51 2 -57 2 -26 31 -13 33 15 0 15 1 34
2 42 1 11 15 16 54 18 l52 3 0 -36 c0 -98 -95 -152 -194 -111 -53 22 -68 67
-64 196 3 99 5 111 27 134 44 47 127 54 181 17z m-1490 -166 l0 -186 -57 3
-58 3 -2 168 c-1 92 1 175 4 182 3 11 21 15 59 15 l54 0 0 -185z m-150 131 c0
-9 -8 -12 -25 -8 -14 2 -25 8 -25 13 0 5 11 9 25 9 14 0 25 -6 25 -14z m1400
-126 c0 -6 -27 -10 -60 -10 -33 0 -60 4 -60 10 0 6 27 10 60 10 33 0 60 -4 60
-10z"/>
<path d="M3920 450 c-16 -30 -9 -74 13 -78 14 -3 17 4 17 47 0 53 -12 65 -30
31z"/>
<path d="M4839 608 c0 -7 -2 -23 -5 -35 -3 -18 1 -23 16 -23 20 0 26 22 14 54
-7 19 -24 21 -25 4z"/>
</g>
</svg>
