<svg width="109" height="109" viewBox="0 0 109 109" fill="none" xmlns="http://www.w3.org/2000/svg">
<g clip-path="url(#clip0)">
<path d="M59.7299 2.82453L56.4799 1.19862C53.7885 -0.147997 50.515 0.941809 49.1678 3.63295L48.3558 5.25705C47.1904 4.66979 45.7976 4.76451 44.7224 5.50412C39.178 3.00802 16.179 -6.15525 1.3586 6.50873C0.192138 7.40424 -0.304609 8.92419 0.107875 10.3357C0.520358 11.7473 1.75739 12.7606 3.2225 12.887C14.8423 13.5418 26.2064 16.5596 36.6201 21.756C36.7028 23.0373 37.4575 24.179 38.6039 24.7572L10.5164 80.914C9.33106 83.2388 9.48338 86.0208 10.9155 88.2024C12.3476 90.384 14.8395 91.6301 17.444 91.4671C20.0486 91.3041 22.3657 89.7571 23.5147 87.414L51.6021 31.259C52.7507 31.8401 54.1228 31.7596 55.1955 31.0483C65.5982 36.2631 74.8279 43.5449 82.3202 52.4486C83.3009 53.5434 84.8529 53.9244 86.2291 53.4081C87.6053 52.8917 88.5237 51.5839 88.5422 50.1142C89.7867 30.6631 68.6697 17.7557 63.3433 14.8236C63.2911 13.5158 62.5279 12.3413 61.354 11.7625L62.1679 10.1384C62.8149 8.84532 62.9215 7.34811 62.4642 5.97637C62.007 4.60464 61.0234 3.47083 59.7299 2.82453ZM52.4178 5.26795C52.6321 4.83373 53.0108 4.50299 53.4699 4.34916C53.929 4.19533 54.4305 4.23114 54.8631 4.44863L58.1131 6.08363C58.5441 6.29917 58.8719 6.67716 59.0242 7.13439C59.1765 7.59162 59.1408 8.09064 58.9251 8.5216L58.1113 10.1439L51.6058 6.88478L52.4178 5.26795ZM3.71845 9.26462C16.2952 -1.47733 36.7255 6.04367 42.6351 8.57428L37.7864 18.2826C27.1412 13.0461 15.5603 9.98059 3.71845 9.26462ZM20.2646 85.7844C19.348 87.5425 17.191 88.2411 15.4177 87.3542C13.6444 86.4673 12.9096 84.3224 13.7664 82.5344L41.8539 26.3831L48.3521 29.6349L20.2646 85.7844ZM53.2281 28.009L51.604 27.1969L40.2316 21.5071L46.7335 8.5107L59.7299 15.0107L53.2281 28.0108V28.009ZM84.9162 49.8835C77.2433 40.8397 67.848 33.4126 57.2774 28.0344L62.1297 18.3243C67.7033 21.5308 85.9753 33.3518 84.9162 49.8835Z" fill="#4F4F4F"/>
<path d="M106.609 18.2608C103.112 19.5592 100.255 22.1644 98.6395 25.5275C96.6103 25.7764 92.7172 26.6883 91.0241 30.0692C90.7337 30.6512 90.7766 31.3441 91.1367 31.8858C95.2899 39.1519 95.8922 47.9184 92.7717 55.6842C92.5814 56.2022 92.6334 56.7782 92.9134 57.2538C93.3694 58.0277 97.1644 64.9437 89.905 69.3001C89.5095 69.5367 89.2196 69.9156 89.0947 70.3592C88.3551 72.6253 86.7114 74.4847 84.5531 75.4967C81.7445 76.5722 78.0712 75.722 73.6385 72.9534C73.3484 72.7675 73.0113 72.6679 72.6666 72.6664C72.514 72.6664 57.8935 72.8353 51.6333 86.7946C46.5181 85.3434 41.1023 87.7945 38.8167 92.5952C34.5729 92.5389 21.5474 93.4381 18.2211 106.743C18.0858 107.286 18.2079 107.861 18.552 108.301C18.8962 108.742 19.4241 109 19.9833 109H105.367C107.373 109 109 107.373 109 105.366V19.983C109 19.3994 108.719 18.8515 108.245 18.5104C107.772 18.1692 107.163 18.0764 106.609 18.2608ZM105.367 105.366H22.4776C26.685 95.0114 39.2018 96.2086 39.7704 96.2721C40.5813 96.3606 41.3516 95.8977 41.6543 95.1404C42.367 93.1223 43.8918 91.4946 45.8591 90.6517C47.8264 89.8089 50.0566 89.8279 52.0093 90.7041C52.4632 90.8863 52.9714 90.8778 53.419 90.6805C53.8666 90.4833 54.2157 90.1138 54.3873 89.6558C57.1278 82.055 64.126 76.8121 72.1907 76.3179C77.4426 79.4861 82.037 80.3509 85.8538 78.8812C88.8627 77.5923 91.2092 75.123 92.343 72.0523C98.2617 68.181 99.1863 61.9408 96.4522 56.1874C99.4677 47.9148 98.8685 38.7558 94.8009 30.9466C96.2434 29.7576 98.0475 29.0946 99.9166 29.0664C100.699 29.0665 101.393 28.5659 101.641 27.8238C102.334 25.859 103.64 24.1689 105.367 23.0023V105.366Z" fill="#4F4F4F"/>
<path d="M92.3899 88.0012L88.9292 86.9112C87.0174 86.3043 84.9756 87.3614 84.3675 89.2728L83.2775 92.7372C82.6719 94.6484 83.7288 96.689 85.6392 97.297C89.3743 98.4779 89.4669 98.5687 90.2027 98.5687C91.7841 98.5625 93.1799 97.534 93.6543 96.0254L94.7443 92.561C95.3506 90.6519 94.2975 88.6123 92.3899 88.0012ZM90.2099 94.9299L86.7456 93.8399L87.8356 90.3756L91.2999 91.4655L90.2099 94.9299Z" fill="#39CBFF"/>
<path d="M69.1223 92.4444C68.5143 90.5339 66.4737 89.4771 64.5625 90.0827L61.0999 91.1727C59.1894 91.7808 58.1326 93.8214 58.7382 95.7326L59.8282 99.1951C60.4362 101.107 62.4781 102.164 64.3899 101.557L67.8543 100.467C69.7647 99.8588 70.8216 97.8182 70.2159 95.907L69.1223 92.4444ZM63.289 98.0997L62.199 94.6371L65.6634 93.5471L66.7534 97.0115L63.289 98.0997Z" fill="#39CBFF"/>
<path d="M76.2999 83.5667C75.2966 83.5667 74.4833 84.38 74.4833 85.3833V87.2C74.4833 88.2033 75.2966 89.0166 76.2999 89.0166C77.3032 89.0166 78.1166 88.2033 78.1166 87.2V85.3833C78.1166 84.38 77.3032 83.5667 76.2999 83.5667Z" fill="#39CBFF"/>
<path d="M45.9488 96.8154L44.1322 98.6321C43.4437 99.3449 43.4535 100.478 44.1543 101.179C44.855 101.879 45.9881 101.889 46.7009 101.201L48.5176 99.3842C49.2061 98.6713 49.1962 97.5383 48.4955 96.8375C47.7947 96.1368 46.6616 96.1269 45.9488 96.8154Z" fill="#39CBFF"/>
<path d="M99.3844 76.8322C98.6716 76.1437 97.5385 76.1535 96.8378 76.8543C96.137 77.555 96.1272 78.6881 96.8156 79.4009C98.7413 81.3284 98.972 81.7499 99.9167 81.7499C100.651 81.7497 101.314 81.3071 101.595 80.6284C101.876 79.9496 101.72 79.1684 101.201 78.6488L99.3844 76.8322Z" fill="#39CBFF"/>
<path d="M59.95 61.374C59.95 66.9966 63.6142 70.4283 69.6001 68.459C71.562 68.0124 73.2175 66.704 74.1054 64.8984C75.1791 62.3024 73.7421 59.4684 72.4704 56.9668C69.7127 51.5477 59.95 56.0167 59.95 61.374ZM70.7482 63.5177C70.2668 64.6786 66.4227 66.1065 64.8677 64.971C63.922 64.0252 63.4506 62.7049 63.5833 61.374C63.5833 59.4284 68.4483 57.0794 69.2295 58.6218C70.1451 60.4239 71.1842 62.4659 70.7482 63.5177Z" fill="#39CBFF"/>
</g>
<defs>
<clipPath id="clip0">
<rect width="109" height="109" fill="white"/>
</clipPath>
</defs>
</svg>
