<svg width="109" height="109" xmlns="http://www.w3.org/2000/svg">
 <style type="text/css">.st0{fill:#A3D4FF;}
	.st1{fill:#2A5082;}
	.st2{clip-path:url(#SVGID_2_);fill:#2A5082;}
	.st3{clip-path:url(#SVGID_2_);fill:#A3D4FF;}
	.st4{clip-path:url(#SVGID_4_);fill:#E9EAEB;}
	.st5{fill:#BCC0C4;}
	.st6{fill:#FFFFFF;}
	.st7{clip-path:url(#SVGID_6_);fill:#E9EAEB;}
	.st8{fill:#E9EAEB;}
	.st9{clip-path:url(#SVGID_8_);fill:#E9EAEB;}
	.st10{clip-path:url(#SVGID_10_);fill:#A3D4FF;}
	.st11{clip-path:url(#SVGID_10_);fill:#2A5082;}
	.st12{clip-path:url(#SVGID_12_);fill:#E9EAEB;}
	.st13{clip-path:url(#SVGID_14_);fill:#E9EAEB;}
	.st14{clip-path:url(#SVGID_16_);fill:#FFFFFF;}
	.st15{clip-path:url(#SVGID_16_);fill:#2A5082;}
	.st16{clip-path:url(#SVGID_18_);fill:#A3D4FF;}
	.st17{clip-path:url(#SVGID_18_);fill:#2A5082;}
	.st18{clip-path:url(#SVGID_20_);fill:#A3D4FF;}
	.st19{clip-path:url(#SVGID_20_);fill:#2A5082;}
	.st20{clip-path:url(#SVGID_22_);fill:#A3D4FF;}
	.st21{clip-path:url(#SVGID_22_);fill:#2A5082;}
	.st22{clip-path:url(#SVGID_24_);fill:#A3D4FF;}
	.st23{clip-path:url(#SVGID_24_);fill:#2A5082;}
	.st24{clip-path:url(#SVGID_24_);fill:#BCC0C4;}
	.st25{clip-path:url(#SVGID_26_);fill:#2A5082;}
	.st26{clip-path:url(#SVGID_26_);fill:#BCC0C4;}
	.st27{clip-path:url(#SVGID_28_);fill:#2A5082;}
	.st28{clip-path:url(#SVGID_28_);fill:#BCC0C4;}
	.st29{clip-path:url(#SVGID_30_);fill:#FFFFFF;}
	.st30{clip-path:url(#SVGID_30_);fill:#2A5082;}
	.st31{clip-path:url(#SVGID_32_);fill:#2A5082;}
	.st32{clip-path:url(#SVGID_32_);fill:#BCC0C4;}
	.st33{clip-path:url(#SVGID_34_);fill:#E9EAEB;}
	.st34{clip-path:url(#SVGID_36_);fill:#2A5082;}
	.st35{clip-path:url(#SVGID_36_);fill:#BCC0C4;}
	.st36{clip-path:url(#SVGID_38_);fill:#2A5082;}
	.st37{clip-path:url(#SVGID_38_);fill:#BCC0C4;}
	.st38{clip-path:url(#SVGID_40_);fill:#2A5082;}
	.st39{clip-path:url(#SVGID_40_);fill:#BCC0C4;}
	.st40{clip-path:url(#SVGID_42_);fill:#E9EAEB;}
	.st41{clip-path:url(#SVGID_42_);fill:#BCC0C4;}
	.st42{clip-path:url(#SVGID_44_);fill:#2A5082;}
	.st43{clip-path:url(#SVGID_44_);fill:#BCC0C4;}
	.st44{clip-path:url(#SVGID_46_);fill:#2A5082;}
	.st45{clip-path:url(#SVGID_48_);fill:#EDEDED;}
	.st46{clip-path:url(#SVGID_50_);fill:#E9EAEB;}
	.st47{clip-path:url(#SVGID_50_);fill:#BCC0C4;}
	.st48{clip-path:url(#SVGID_52_);fill:#E9EAEB;}
	.st49{clip-path:url(#SVGID_52_);fill:#2A5082;}
	.st50{clip-path:url(#SVGID_54_);fill:#E9EAEB;}
	.st51{clip-path:url(#SVGID_56_);fill:#E9EAEB;}
	.st52{clip-path:url(#SVGID_56_);fill:#2A5082;}
	.st53{clip-path:url(#SVGID_58_);fill:#FFFFFF;}
	.st54{clip-path:url(#SVGID_58_);fill:#2A5082;}
	.st55{clip-path:url(#SVGID_60_);fill:#2A5082;}</style>

 <g>
  <title>background</title>
  <rect fill="none" id="canvas_background" height="111" width="111" y="-1" x="-1"/>
 </g>
 <g>
  <title>Layer 1</title>
  <path stroke="null" id="svg_2" d="m51.45564,15.74534c-21.965828,0 -39.770493,17.804665 -39.770493,39.770493s17.804665,39.781135 39.781135,39.781135s39.770493,-17.804665 39.770493,-39.781135l0,0c0,-21.965828 -17.804665,-39.770493 -39.781135,-39.770493l0,0zm0,69.185971c-16.240239,0 -29.404836,-13.164597 -29.404836,-29.404836s13.164597,-29.404836 29.404836,-29.404836s29.404836,13.164597 29.404836,29.404836l0,0c0,16.229596 -13.164597,29.394194 -29.404836,29.404836l0,0z" class="st8"/>
  <path stroke="null" id="svg_3" d="m15.143914,55.664826l-3.458766,0c0,-7.055884 1.873055,-13.984059 5.427603,-20.071488l2.97986,1.745347c-3.245919,5.565953 -4.959339,11.887514 -4.948697,18.326141l0,0zm36.311727,39.781135l0,-3.458766c15.61234,0.010642 29.479333,-9.961247 34.428029,-24.764768l3.277846,1.106805c-5.41696,16.208312 -20.603606,27.127371 -37.705875,27.116729l0,0z" class="st5"/>
  <path stroke="null" id="svg_4" d="m78.668151,50.141442c-0.670469,-3.490694 -1.990121,-6.832394 -3.916388,-9.833539l2.916006,-1.862413c2.160399,3.362985 3.650329,7.119738 4.395294,11.046768l-3.394912,0.649184zm-27.680774,36.992837c-17.474752,0 -31.650374,-14.164979 -31.650374,-31.639731c0,-17.474752 14.164979,-31.650374 31.639731,-31.650374c6.704686,0 13.239094,2.128472 18.656054,6.076787l-2.043333,2.79894c-12.579268,-9.163071 -30.203013,-6.385415 -39.355441,6.193853s-6.385415,30.203013 6.193853,39.355441s30.203013,6.385415 39.355441,-6.193853c2.426458,-3.331058 4.086666,-7.141022 4.8742,-11.185119l3.394912,0.659826c-2.905364,14.856732 -15.920968,25.573587 -31.065044,25.584229z" class="st1"/>
  <path stroke="null" id="svg_5" d="m73.166051,16.937284c-13.35616,-7.67314 -29.724107,-7.907272 -43.282471,-0.617257l-1.638923,-3.043714c14.6226,-7.864703 32.26763,-7.609286 46.656099,0.670469l-1.734704,2.990503zm-43.229259,81.648173c-23.796313,-11.632098 -33.661779,-40.366465 -22.029682,-64.162778c0.340555,-0.702396 0.702396,-1.394149 1.074878,-2.07526l3.033072,1.67085c-11.855587,21.540133 -4.012169,48.60365 17.527964,60.459238c0.627899,0.351198 1.266441,0.681111 1.915624,1.000382l-1.521857,3.107569zm43.080266,-0.521476l-1.575069,-3.064999c10.440153,-5.45953 18.304856,-14.80352 21.912616,-26.020566l3.299131,1.053593c-3.884461,12.089719 -12.387705,22.15739 -23.636678,28.031972l0,0zm20.933519,-54.052538c-0.755607,-2.873437 -1.809201,-5.661735 -3.128853,-8.322324l3.128853,-1.564427c1.436718,2.873437 2.564808,5.885224 3.394912,8.98215l-3.394912,0.9046z" class="st5"/>
  <path fill="#f993a2" stroke="null" id="svg_6" d="m68.611122,52.057067c-0.351198,-1.809201 -0.989739,-3.56519 -1.873055,-5.182828l3.033072,-1.67085c1.064236,1.936909 1.819843,4.022811 2.234895,6.193853l-3.394912,0.659826zm-17.623745,24.839264c-11.82366,0.010642 -21.412425,-9.56748 -21.412425,-21.39114s9.56748,-21.412425 21.39114,-21.412425c3.852534,0 7.641213,1.032309 10.950987,3.001145l-1.755989,2.947933c-8.524529,-5.05512 -19.528727,-2.234895 -24.583848,6.289634s-2.234895,19.528727 6.289634,24.583848s19.528727,2.234895 24.583848,-6.289634c0.734323,-1.234514 1.30901,-2.554166 1.734704,-3.92703l3.309773,1.000382c-2.713801,9.056647 -11.05741,15.239857 -20.507824,15.197288l0,0z" class="st1"/>
  <path stroke="null" id="svg_7" d="m50.987377,67.084077c-6.4067,0 -11.589528,-5.193471 -11.589528,-11.589528s5.193471,-11.589528 11.589528,-11.589528c1.766631,0 3.511978,0.40441 5.09769,1.181302l-1.521857,3.128853c-1.117448,-0.54276 -2.341319,-0.830104 -3.575832,-0.819462c-4.491075,0 -8.130762,3.639687 -8.130762,8.130762s3.639687,8.130762 8.130762,8.130762c3.267204,0 6.22578,-1.958194 7.49222,-4.980624l3.235277,1.319652c-1.809201,4.310155 -6.04486,7.109095 -10.727497,7.087811l0,0z" class="st1"/>
  <path stroke="null" id="svg_8" d="m51.45564,53.791771l60.544376,0l0,3.458766l-60.544376,0l0,-3.458766z" class="st1"/>
  <path stroke="null" id="svg_9" d="m106.806546,48.5983l-10.301803,0l-5.27861,5.161544l0,3.458766l5.27861,5.214756l10.301803,0l0,-1.755989l-3.469409,-5.193471l3.469409,-5.193471l0,-1.692135z" class="st0"/>
  <path stroke="null" id="svg_10" d="m108.54125,64.168071l-12.738903,0l-6.257707,-6.257707l0,-4.863558l6.257707,-6.161925l12.728261,0l0,3.948315l-3.128853,4.69328l3.128853,4.69328l0.010642,3.948315zm-11.312827,-3.458766l7.53479,0l-3.469409,-5.214756l3.448124,-5.161544l-7.49222,0l-4.246301,4.161162l0,2.011406l4.225016,4.203732zm-47.145647,-6.00229l42.122454,-41.590336l2.426458,2.458385l-42.122454,41.590336l-2.426458,-2.458385z" class="st1"/>
  <path stroke="null" id="svg_11" d="m84.787507,13.116678l-7.385797,7.332585l0,7.343227l1.277083,0.893958l1.266441,0.893958l7.343227,0l7.343227,-7.002672l-1.223871,-1.053593l-6.108714,-1.138732l-1.245156,-6.076787l-1.266441,-1.191944l0,0z" class="st0"/>
  <path stroke="null" id="svg_12" d="m87.980214,31.304468l-8.609668,0l-3.724825,-2.607378l0,-8.960866l9.088574,-9.035362l2.862794,2.703159l1.117448,5.480815l5.45953,0.989739l3.02243,2.607378l-9.216282,8.822515zm-7.481578,-3.458766l6.098071,0l5.118974,-4.895485l-5.885224,-1.096163l-1.255798,-6.087429l-5.480815,5.406318l0,5.746873l1.404791,0.925885z" class="st1"/>
 </g>
</svg>